<?xml version="1.0" encoding="UTF-8"?>
<svg xmlns="http://www.w3.org/2000/svg" xmlns:xlink="http://www.w3.org/1999/xlink" width="2834.88" height="2834.88" viewBox="0 0 2834.88 2834.88">
<path fill-rule="evenodd" fill="rgb(0%, 33.396912%, 62.693787%)" fill-opacity="1" d="M 1135.851562 1620.609375 C 959.796875 1350.46875 1016.449219 985.300781 1274.828125 782.441406 C 1548.050781 567.921875 1944.019531 615.578125 2158.53125 888.800781 C 2373.050781 1162.011719 2325.390625 1557.988281 2052.171875 1772.5 C 1793.789062 1975.367188 1425.609375 1943.753906 1204.960938 1708.628906 L 1145 1755.699219 L 1075.890625 1667.679688 Z M 2110.261719 926.699219 C 1916.671875 680.128906 1559.308594 637.121094 1312.738281 830.710938 C 1066.160156 1024.300781 1023.148438 1381.660156 1216.738281 1628.230469 C 1410.339844 1874.804688 1767.699219 1917.816406 2014.269531 1724.21875 C 2260.839844 1530.628906 2303.851562 1173.269531 2110.261719 926.699219 "/>
<path fill-rule="evenodd" fill="rgb(14.988708%, 20.188904%, 54.881287%)" fill-opacity="1" d="M 1704.601562 1216.488281 C 1884.289062 1237.71875 2024.839844 1391.628906 2024.839844 1576.769531 L 2024.839844 1626.191406 C 2015.089844 1636.378906 2004.828125 1646.261719 1994.078125 1655.761719 L 1992.011719 1657.488281 L 1992.070312 1657.519531 C 1968.359375 1678.210938 1943.238281 1696.28125 1917.089844 1711.699219 L 1917.089844 1535.910156 C 1917.089844 1527.660156 1910.351562 1520.921875 1902.101562 1520.921875 C 1893.820312 1520.921875 1887.078125 1527.660156 1887.078125 1535.910156 L 1887.078125 1728.039062 C 1807.148438 1768.058594 1719.121094 1785.078125 1632.421875 1779.691406 C 1564.929688 1775.488281 1498.289062 1757.640625 1436.960938 1726.46875 L 1436.960938 1535.910156 C 1436.960938 1527.660156 1430.210938 1520.921875 1421.96875 1520.921875 C 1413.71875 1520.921875 1406.949219 1527.660156 1406.949219 1535.910156 L 1406.949219 1709.890625 C 1368 1686.550781 1331.691406 1657.488281 1299.199219 1622.800781 L 1299.199219 1576.769531 C 1299.199219 1391.628906 1439.75 1237.75 1619.429688 1216.488281 L 1622.628906 1225.359375 L 1633.640625 1255.871094 L 1622.820312 1406.109375 L 1609.089844 1596.339844 L 1661.359375 1650.898438 L 1714.980469 1596.339844 L 1701.25 1406.109375 L 1690.398438 1255.839844 L 1701.410156 1225.359375 Z M 1672.238281 779.441406 C 1781.871094 779.441406 1870.710938 868.308594 1870.710938 977.910156 C 1870.710938 1087.511719 1781.871094 1176.351562 1672.238281 1176.351562 C 1562.640625 1176.351562 1473.800781 1087.511719 1473.800781 977.910156 C 1473.800781 868.308594 1562.640625 779.441406 1672.238281 779.441406 Z M 1110.839844 1845.417969 L 685.519531 2179.359375 C 678.179688 2185.121094 668.851562 2187.734375 659.585938 2186.617188 C 650.320312 2185.503906 641.875 2180.753906 636.113281 2173.410156 L 549.363281 2062.921875 C 543.601562 2055.582031 540.988281 2046.253906 542.105469 2036.988281 C 543.21875 2027.722656 547.96875 2019.28125 555.308594 2013.515625 L 980.636719 1679.578125 C 987.976562 1673.808594 997.304688 1671.199219 1006.570312 1672.320312 C 1015.828125 1673.429688 1024.28125 1678.179688 1030.039062 1685.519531 L 1116.789062 1796.011719 C 1122.550781 1803.351562 1125.160156 1812.679688 1124.050781 1821.949219 C 1122.929688 1831.210938 1118.179688 1839.65625 1110.839844 1845.417969 "/>
</svg>
